<?xml version="1.0" standalone="no"?>
<!DOCTYPE svg PUBLIC "-//W3C//DTD SVG 20010904//EN"
 "http://www.w3.org/TR/2001/REC-SVG-20010904/DTD/svg10.dtd">
<svg version="1.0" xmlns="http://www.w3.org/2000/svg"
 width="200.000000pt" height="200.000000pt" viewBox="0 0 200.000000 200.000000"
 preserveAspectRatio="xMidYMid meet">

<g transform="translate(0.000000,200.000000) scale(0.100000,-0.100000)"
fill="#000000" stroke="none">
<path d="M1034 1832 c-3 -27 -9 -54 -13 -60 -3 -5 -31 -12 -61 -14 l-54 -3
-20 55 c-11 30 -20 56 -22 58 -1 2 -30 -4 -64 -14 l-62 -17 6 -41 c4 -23 9
-51 12 -63 5 -18 -2 -25 -35 -42 -22 -12 -44 -21 -48 -21 -4 0 -27 18 -50 41
-27 25 -48 37 -55 33 -29 -17 -78 -60 -78 -67 0 -5 14 -28 30 -53 34 -48 32
-60 -14 -103 l-26 -25 -48 24 c-26 14 -50 26 -53 28 -8 4 -59 -82 -59 -100 0
-7 20 -26 45 -41 50 -32 50 -33 33 -90 l-12 -40 -62 6 c-62 6 -63 6 -68 -21
-18 -92 -18 -102 -3 -102 9 0 39 -5 67 -11 l50 -11 0 -48 0 -47 -60 -17 c-67
-19 -63 -10 -39 -108 l9 -36 53 14 c28 7 55 14 60 14 13 0 53 -93 41 -97 -6
-2 -30 -17 -52 -34 l-42 -31 30 -43 c17 -24 35 -47 41 -51 6 -3 31 8 56 26
l45 33 40 -41 41 -40 -27 -47 c-15 -25 -25 -52 -22 -60 2 -7 26 -26 51 -41
l46 -27 16 22 c8 12 25 34 38 48 l22 27 54 -21 c30 -12 54 -27 53 -34 0 -8 -4
-35 -7 -61 -7 -53 -5 -54 78 -64 l52 -6 7 56 c8 62 8 62 83 70 l52 5 17 -60
c9 -32 21 -59 27 -59 6 0 37 7 69 16 43 13 58 21 53 31 -3 8 -8 38 -11 66 l-6
52 44 19 c23 11 46 21 49 23 3 2 20 -17 38 -42 18 -25 38 -45 44 -45 7 1 32
18 56 39 l44 39 -32 45 c-17 25 -31 50 -31 56 0 6 14 26 31 45 l31 36 48 -25
c27 -14 53 -25 58 -25 5 0 21 22 35 49 30 54 29 57 -41 97 -35 20 -37 33 -13
97 8 21 16 26 33 23 86 -18 95 -17 102 6 3 13 6 42 6 64 l0 41 -60 12 -60 12
0 58 0 57 50 13 c27 7 53 17 56 22 7 11 -14 107 -25 114 -4 2 -32 -2 -61 -10
-30 -8 -55 -13 -55 -12 -1 1 -13 23 -28 49 l-25 48 46 44 46 44 -28 37 c-16
20 -34 39 -41 41 -7 3 -34 -9 -61 -26 l-48 -30 -34 34 -34 33 21 48 c12 26 21
54 21 61 0 11 -76 64 -92 64 -3 0 -20 -22 -39 -50 -19 -27 -38 -48 -44 -46 -5
3 -27 10 -49 17 l-38 13 4 63 c4 70 7 67 -74 78 l-47 7 -7 -50z m36 -173 c0
-11 5 -19 11 -19 6 0 9 9 6 20 -3 11 -1 20 4 20 19 0 129 -40 157 -57 85 -52
125 -84 170 -136 35 -41 40 -57 18 -57 -7 0 -19 -7 -26 -15 -18 -21 -32 -19
-25 5 4 11 2 20 -4 20 -6 0 -11 7 -11 15 0 19 9 19 32 -2 24 -21 25 3 1 29
-16 18 -17 18 -40 -4 -30 -28 -43 -15 -14 16 13 14 18 26 13 30 -6 3 -19 -5
-30 -18 l-19 -25 -23 31 c-16 22 -19 33 -11 41 6 6 11 16 11 22 -1 5 -12 -3
-25 -20 -24 -28 -25 -29 -25 -7 0 12 -4 22 -10 22 -5 0 -10 -5 -10 -11 0 -5
-4 -7 -10 -4 -14 9 -12 55 2 55 9 0 9 3 -1 13 -10 10 -15 8 -27 -7 -8 -11 -14
-30 -14 -43 0 -13 -5 -23 -11 -23 -19 0 -49 20 -49 33 0 7 4 6 10 -3 8 -13 11
-12 24 5 20 26 20 37 0 33 -10 -2 -19 3 -22 11 -3 11 2 12 24 8 l29 -6 -30 14
c-29 13 -30 12 -38 -16 -7 -27 -27 -41 -27 -20 0 5 -9 7 -20 4 -21 -6 -50 12
-50 29 0 6 6 5 15 -2 8 -6 20 -10 27 -7 8 4 7 6 -4 6 -21 1 -24 17 -5 24 7 3
4 6 -6 6 -10 1 -16 5 -13 10 10 16 46 0 46 -20z m-142 14 c-22 -5 -24 -23 -4
-23 19 0 29 -17 20 -32 -5 -8 -10 -6 -15 8 -7 17 -8 17 -8 -3 -1 -24 -15 -31
-26 -13 -4 6 -10 8 -15 5 -18 -11 -22 19 -4 32 19 14 19 15 -1 11 -16 -3 -19
-11 -17 -36 3 -38 -13 -43 -22 -7 -8 33 -25 33 -18 0 3 -20 1 -24 -12 -19 -9
3 -16 12 -16 20 0 8 -5 14 -11 14 -11 0 -9 -16 6 -52 11 -28 -10 -21 -23 7 -6
14 -16 25 -22 25 -14 0 -12 -11 5 -34 25 -33 16 -43 -11 -12 -14 15 -28 26
-31 22 -3 -3 2 -15 12 -26 17 -19 17 -21 0 -40 -10 -11 -24 -20 -32 -20 -21 0
-40 23 -35 40 5 13 3 13 -12 1 -16 -13 -15 -16 10 -43 20 -20 23 -28 12 -28
-8 0 -23 9 -33 20 -10 11 -21 18 -24 15 -3 -3 8 -17 24 -30 29 -24 29 -24 7
-25 -14 0 -20 -4 -17 -10 10 -16 -14 -40 -39 -39 -21 0 -21 0 2 9 22 9 31 30
12 30 -5 0 -10 -4 -10 -10 0 -5 -5 -10 -11 -10 -6 0 -8 7 -5 16 5 14 4 15 -9
4 -9 -8 -15 -8 -15 -2 0 6 4 13 9 16 13 8 21 46 9 43 -6 -1 -12 6 -13 17 -3
15 1 17 23 13 20 -4 35 3 64 29 21 19 43 34 48 34 20 0 10 19 -12 23 -13 3 -5
5 17 4 34 -2 41 2 53 27 13 25 18 28 51 23 20 -2 47 -1 61 3 14 4 41 8 60 8
19 0 27 -2 18 -5z m70 -80 l-5 -38 56 -1 c63 -2 191 -53 191 -77 0 -8 -9 -22
-21 -33 -11 -10 -36 -39 -55 -65 l-34 -46 -57 20 c-58 20 -89 18 -193 -8 -33
-8 -59 27 -38 53 7 9 -6 2 -28 -16 -54 -41 -71 -81 -56 -130 6 -20 10 -38 8
-40 -2 -2 -16 13 -32 33 -48 63 -31 115 56 167 88 53 160 120 182 169 13 27
25 49 27 49 2 0 1 -17 -1 -37z m297 27 c3 -5 1 -10 -4 -10 -6 0 -11 5 -11 10
0 6 2 10 4 10 3 0 8 -4 11 -10z m-336 -27 c-35 -47 -61 -70 -149 -133 -118
-84 -134 -101 -134 -147 0 -31 8 -43 53 -85 50 -45 51 -49 25 -43 -16 3 -23 2
-16 -1 7 -3 12 -25 12 -55 0 -27 7 -65 15 -85 8 -19 12 -40 9 -47 -3 -6 -37
-38 -75 -70 l-69 -58 -20 33 c-40 66 -55 129 -54 228 1 98 27 193 59 220 13
11 15 6 16 -31 l2 -44 6 40 c10 58 25 80 86 126 30 23 55 44 55 46 0 3 -7 0
-15 -7 -9 -7 -18 -10 -21 -8 -6 6 41 41 69 51 12 4 16 3 11 -4 -3 -6 6 -3 22
7 47 29 99 68 102 77 2 4 8 7 14 7 6 0 5 -7 -3 -17z m545 -247 c9 -19 16 -39
16 -45 0 -6 6 -11 14 -11 26 0 39 -26 25 -51 -6 -13 -11 -56 -10 -98 1 -42 -2
-81 -7 -88 -10 -15 -29 -4 -33 20 -5 23 -25 20 -21 -3 2 -11 -5 -20 -18 -23
-24 -6 -24 -8 -4 31 18 38 50 43 57 10 4 -16 5 -13 4 7 -1 17 -8 31 -14 31 -7
1 -19 2 -27 3 -24 2 -4 55 22 59 12 2 22 8 22 13 0 13 -44 11 -59 -3 -10 -11
-10 -8 0 15 9 20 17 26 31 21 13 -4 18 0 18 12 0 13 -7 16 -35 11 -43 -7 -47
9 -5 18 17 4 30 11 30 17 0 10 -17 8 -51 -6 -23 -10 -23 53 -1 76 24 24 28 22
46 -16z m-969 -10 l30 -17 -37 6 c-24 4 -38 2 -38 -5 0 -5 9 -10 19 -10 11 0
22 -4 25 -9 9 -14 -27 -72 -41 -66 -7 2 -15 0 -18 -5 -4 -6 5 -10 19 -10 14 0
26 -4 26 -10 0 -5 -9 -10 -20 -10 -11 0 -20 -7 -20 -16 0 -11 6 -14 23 -9 21
7 21 6 5 -10 -21 -22 -45 -14 -51 17 -4 20 -4 20 -6 -4 0 -16 -5 -28 -11 -28
-13 0 -13 0 9 95 19 86 39 134 50 118 3 -6 20 -18 36 -27z m860 -38 c40 -90
46 -212 15 -302 -13 -35 -33 -76 -44 -90 l-21 -26 -69 63 -70 63 14 35 c7 19
23 45 34 59 11 14 -2 5 -29 -20 -62 -56 -79 -78 -85 -110 l-5 -25 -138 -3
c-75 -1 -137 1 -137 6 0 8 48 32 93 46 11 3 17 16 17 35 0 25 -5 32 -27 37
-71 15 -143 63 -143 95 0 5 83 9 185 9 122 0 185 4 185 10 0 6 11 22 25 36 13
13 25 27 25 30 -1 6 133 114 141 114 4 0 19 -28 34 -62z m-345 -17 c28 -7 65
-27 87 -46 l38 -34 -187 -1 c-117 0 -188 4 -188 10 0 16 72 58 122 70 33 9 48
18 53 33 l6 22 10 -21 c7 -13 28 -25 59 -33z m-589 -231 c5 0 9 7 9 15 0 9 9
15 23 14 20 0 21 -1 3 -8 -19 -7 -18 -8 5 -14 13 -4 20 -10 14 -14 -5 -5 -10
-15 -10 -23 0 -22 -32 -24 -38 -3 -4 14 -5 12 -6 -6 -1 -21 2 -23 34 -17 22 4
35 3 35 -4 0 -5 -5 -10 -10 -10 -6 0 -8 -11 -4 -25 8 -31 -9 -33 -24 -2 -10
20 -11 21 -11 2 -1 -34 14 -49 37 -36 42 22 46 0 5 -24 -28 -16 -9 -16 30 0
26 11 20 -10 -8 -25 -14 -7 -25 -17 -25 -22 0 -13 16 -9 30 7 7 8 19 15 28 15
13 0 12 -3 -3 -20 -18 -20 -18 -21 1 -14 10 4 25 12 33 18 11 9 13 7 7 -12 -4
-12 -4 -22 1 -22 9 0 33 -48 33 -67 0 -18 -25 -16 -44 3 -24 24 -19 3 6 -23
22 -23 12 -33 -10 -11 -8 8 -12 9 -12 1 0 -6 -9 -9 -20 -6 -14 4 -19 11 -15
23 8 25 -60 135 -82 135 -14 0 -18 9 -19 45 -1 25 -4 72 -8 105 -3 33 -3 52 0
43 3 -10 10 -18 15 -18z m1009 -30 c0 -5 -7 -10 -15 -10 -8 0 -15 5 -15 10 0
6 7 10 15 10 8 0 15 -4 15 -10z m45 -77 c-13 -53 -61 -137 -103 -182 -24 -25
-42 -39 -39 -31 2 8 -8 24 -22 37 -21 18 -22 22 -9 23 9 0 20 -5 24 -11 4 -8
9 -7 15 2 13 20 11 27 -8 32 -13 4 -12 5 5 6 25 1 39 -22 26 -42 -5 -7 -1 -4
9 7 21 23 18 37 -12 52 l-22 11 23 7 c34 9 38 8 38 -11 0 -14 2 -15 13 -4 8
10 9 15 1 18 -22 8 -49 32 -43 38 4 3 18 0 33 -6 14 -7 29 -9 34 -4 4 4 2 10
-4 12 -6 2 -19 10 -29 17 -17 12 -17 14 1 34 10 11 32 21 48 21 26 1 28 -1 21
-26z m-519 -55 c33 0 70 4 80 10 11 6 24 8 30 4 21 -15 114 -130 114 -141 0
-7 -26 -24 -57 -38 -51 -24 -71 -27 -168 -27 -101 -1 -115 1 -172 28 -35 16
-63 32 -63 37 0 4 27 39 61 78 57 66 62 69 87 59 15 -5 54 -10 88 -10z m-301
-177 c7 -12 -12 -24 -25 -16 -11 7 -4 25 10 25 5 0 11 -4 15 -9z m625 0 c0
-14 -18 -23 -30 -16 -6 4 -8 11 -5 16 8 12 35 12 35 0z m-530 -25 c6 -8 21
-16 32 -18 12 -2 23 -9 26 -16 2 -6 -2 -10 -10 -9 -7 2 -10 2 -5 0 13 -8 7
-43 -8 -50 -9 -3 -24 2 -34 11 -10 9 -25 16 -33 16 -28 0 -42 27 -30 55 13 28
43 33 62 11z m457 -21 l28 -24 -27 -1 c-19 0 -28 -5 -28 -16 0 -8 -4 -12 -10
-9 -13 8 -13 75 -1 75 6 0 23 -11 38 -25z m-62 -25 c17 -33 18 -40 7 -40 -9 0
-32 44 -32 60 0 18 9 10 25 -20z m-305 6 c0 -23 -19 -66 -29 -66 -5 0 -5 16 1
40 10 39 28 55 28 26z m276 -11 c8 -33 0 -51 -25 -58 -17 -4 -23 1 -30 26 l-9
32 -1 -32 c-1 -38 -6 -40 -34 -15 -19 16 -20 16 -14 0 3 -10 2 -20 -2 -23 -5
-2 -11 5 -15 18 -9 35 -7 57 5 57 7 0 18 -8 25 -17 12 -17 13 -16 14 4 0 21
15 30 57 32 16 1 24 -6 29 -24z m-211 -27 c1 -39 -11 -50 -21 -23 -4 8 -10 15
-15 15 -5 0 -9 -7 -9 -15 0 -8 -4 -15 -10 -15 -12 0 -12 7 -4 49 6 27 11 32
33 29 23 -3 26 -8 26 -40z m64 -10 c-1 -42 -1 -42 -10 -13 -5 17 -7 36 -4 43
9 24 15 11 14 -30z"/>
<path d="M1236 1603 c-11 -11 -6 -23 9 -23 8 0 15 4 15 9 0 13 -16 22 -24 14z"/>
<path d="M1306 1541 c-17 -6 -17 -8 -3 -14 8 -3 21 1 27 9 13 15 6 17 -24 5z"/>
<path d="M765 1650 c-3 -5 -1 -10 4 -10 6 0 11 5 11 10 0 6 -2 10 -4 10 -3 0
-8 -4 -11 -10z"/>
<path d="M680 1550 c6 -11 8 -26 4 -33 -5 -9 -4 -9 6 -1 13 13 5 54 -11 54 -6
0 -5 -8 1 -20z"/>
<path d="M570 1470 c0 -5 5 -10 10 -10 6 0 10 5 10 10 0 6 -4 10 -10 10 -5 0
-10 -4 -10 -10z"/>
<path d="M941 1477 c-13 -21 -12 -21 5 -5 10 10 16 20 13 22 -3 3 -11 -5 -18
-17z"/>
<path d="M869 1423 c-13 -16 -12 -17 4 -4 16 13 21 21 13 21 -2 0 -10 -8 -17
-17z"/>
<path d="M640 1264 c0 -6 15 -23 33 -40 l32 -29 -30 35 c-16 19 -31 37 -32 39
-2 2 -3 0 -3 -5z"/>
<path d="M1465 1340 c-19 -7 -19 -8 -2 -15 19 -8 31 -2 26 13 -2 5 -13 6 -24
2z"/>
<path d="M1530 1261 c0 -6 5 -13 10 -16 6 -3 10 1 10 9 0 9 -4 16 -10 16 -5 0
-10 -4 -10 -9z"/>
<path d="M476 1292 c-3 -5 4 -13 15 -20 15 -10 19 -10 19 2 0 15 -27 29 -34
18z"/>
<path d="M1195 1180 c-18 -56 -78 -99 -158 -114 -36 -7 -38 -9 -35 -39 3 -29
7 -32 47 -39 25 -4 49 -12 55 -18 16 -16 26 -12 26 11 0 12 26 48 60 83 58 60
72 86 49 86 -7 0 -9 10 -7 25 4 19 1 25 -13 25 -10 0 -21 -9 -24 -20z"/>
<path d="M1273 1165 c0 -22 2 -30 4 -17 2 12 2 30 0 40 -3 9 -5 -1 -4 -23z"/>
<path d="M460 911 c0 -5 5 -13 10 -16 6 -3 10 -2 10 4 0 5 -4 13 -10 16 -5 3
-10 2 -10 -4z"/>
<path d="M551 803 c16 -26 32 -29 48 -9 9 10 8 15 -4 20 -10 3 -15 0 -15 -11
0 -14 -3 -14 -21 3 -22 19 -22 19 -8 -3z"/>
<path d="M1470 930 c0 -5 5 -10 10 -10 6 0 10 5 10 10 0 6 -4 10 -10 10 -5 0
-10 -4 -10 -10z"/>
<path d="M747 673 c-14 -13 -6 -33 12 -33 11 0 27 -7 36 -16 28 -29 28 -7 -1
25 -28 32 -36 36 -47 24z"/>
<path d="M1117 620 c3 -11 9 -20 14 -20 5 0 9 9 9 20 0 11 -6 20 -14 20 -9 0
-12 -7 -9 -20z"/>
<path d="M394 340 c-44 -10 -54 -18 -70 -56 -18 -43 -18 -68 1 -109 18 -37 51
-55 99 -55 34 0 76 30 76 55 0 21 -27 18 -50 -5 -27 -27 -46 -25 -77 6 -21 21
-24 32 -20 61 7 41 32 73 57 73 10 0 29 -9 43 -20 14 -11 32 -17 41 -14 14 5
14 8 0 29 -19 29 -60 43 -100 35z"/>
<path d="M552 320 c-6 -11 -12 -33 -12 -50 0 -31 3 -33 93 -69 40 -16 33 -45
-12 -49 -23 -2 -37 2 -43 12 -9 17 -48 22 -48 7 0 -5 9 -19 19 -32 16 -20 29
-24 70 -24 55 0 78 15 86 55 7 37 -19 67 -72 82 -55 16 -70 43 -28 54 17 4 32
1 44 -10 20 -18 51 -22 51 -6 0 6 -9 19 -20 30 -28 28 -110 28 -128 0z"/>
<path d="M740 230 c0 -103 1 -110 20 -110 19 0 20 7 20 110 0 103 -1 110 -20
110 -19 0 -20 -7 -20 -110z"/>
<path d="M840 230 c0 -103 1 -110 20 -110 17 0 20 7 20 46 0 41 2 45 22 42 13
-2 34 -21 51 -45 17 -26 36 -43 48 -43 26 0 24 10 -9 56 l-29 40 24 17 c30 24
31 70 1 91 -15 11 -45 16 -85 16 l-63 0 0 -110z m125 45 c0 -16 -8 -21 -42
-23 -40 -3 -43 -2 -43 23 0 25 3 26 43 23 34 -2 42 -7 42 -23z"/>
<path d="M1150 230 c0 -103 1 -110 20 -110 19 0 20 7 20 110 0 103 -1 110 -20
110 -19 0 -20 -7 -20 -110z"/>
<path d="M1240 230 c0 -103 1 -110 20 -110 19 0 20 7 20 110 0 103 -1 110 -20
110 -19 0 -20 -7 -20 -110z"/>
<path d="M1320 230 c0 -103 1 -110 20 -110 19 0 20 7 20 110 0 103 -1 110 -20
110 -19 0 -20 -7 -20 -110z"/>
<path d="M1410 230 c0 -87 3 -110 14 -110 18 0 23 22 21 93 0 31 2 57 6 57 4
0 15 -34 24 -75 15 -61 22 -75 37 -75 22 0 25 7 48 108 l18 77 1 -92 c1 -86 3
-93 21 -93 19 0 20 7 20 111 l0 110 -32 -3 c-32 -3 -33 -4 -54 -88 l-20 -85
-13 50 c-32 130 -29 125 -61 125 l-30 0 0 -110z"/>
<path d="M1040 190 c0 -17 7 -20 40 -20 33 0 40 3 40 20 0 17 -7 20 -40 20
-33 0 -40 -3 -40 -20z"/>
</g>
</svg>
