<?xml version="1.0" standalone="no"?>
<!DOCTYPE svg PUBLIC "-//W3C//DTD SVG 20010904//EN"
 "http://www.w3.org/TR/2001/REC-SVG-20010904/DTD/svg10.dtd">
<svg version="1.0" xmlns="http://www.w3.org/2000/svg"
 width="148.000000pt" height="148.000000pt" viewBox="0 0 148.000000 148.000000"
 preserveAspectRatio="xMidYMid meet">

<g transform="translate(0.000000,148.000000) scale(0.100000,-0.100000)"
fill="#000000" stroke="none">
<path d="M416 1170 c-41 -13 -94 -68 -106 -110 -13 -46 -13 -594 0 -640 12
-45 65 -97 111 -110 44 -13 593 -13 639 0 45 12 97 65 110 111 13 44 13 594 0
638 -13 46 -65 99 -110 111 -43 12 -603 12 -644 0z m164 -180 c40 -40 11 -110
-45 -110 -31 0 -65 33 -65 62 0 29 38 68 67 68 13 0 32 -9 43 -20z m369 -177
c50 -37 61 -76 61 -215 l0 -128 -55 0 -55 0 0 103 c0 124 -11 151 -60 155 -65
5 -75 -11 -78 -142 l-4 -116 -54 0 -54 0 0 180 0 180 55 0 c50 0 55 -2 55 -22
0 -20 1 -20 18 -5 45 41 123 45 171 10z m-359 -163 l0 -180 -55 0 -55 0 0 180
0 180 55 0 55 0 0 -180z"/>
</g>
</svg>
